<?xml version="1.0" encoding="UTF-8" standalone="no"?>
<svg
   xmlns:dc="http://purl.org/dc/elements/1.1/"
   xmlns:cc="http://creativecommons.org/ns#"
   xmlns:rdf="http://www.w3.org/1999/02/22-rdf-syntax-ns#"
   xmlns:svg="http://www.w3.org/2000/svg"
   xmlns="http://www.w3.org/2000/svg"
   xmlns:xlink="http://www.w3.org/1999/xlink"
   xmlns:sodipodi="http://sodipodi.sourceforge.net/DTD/sodipodi-0.dtd"
   xmlns:inkscape="http://www.inkscape.org/namespaces/inkscape"
   width="600"
   height="480"
   version="1.1"
   id="svg2"
   inkscape:version="0.48.2 r9819"
   sodipodi:docname="rose.svg">
  <metadata
     id="metadata103">
    <rdf:RDF>
      <cc:Work
         rdf:about="">
        <dc:format>image/svg+xml</dc:format>
        <dc:type
           rdf:resource="http://purl.org/dc/dcmitype/StillImage" />
      </cc:Work>
    </rdf:RDF>
  </metadata>
  <sodipodi:namedview
     pagecolor="#ffffff"
     bordercolor="#666666"
     borderopacity="1"
     objecttolerance="10"
     gridtolerance="10"
     guidetolerance="10"
     inkscape:pageopacity="0"
     inkscape:pageshadow="2"
     inkscape:window-width="1536"
     inkscape:window-height="801"
     id="namedview101"
     showgrid="false"
     inkscape:zoom="0.86170023"
     inkscape:cx="332.11164"
     inkscape:cy="184.19894"
     inkscape:window-x="-8"
     inkscape:window-y="-8"
     inkscape:window-maximized="1"
     inkscape:current-layer="svg2" />
  <use
     x="0"
     y="0"
     xlink:href="#PrinterCtl"
     id="use99"
     transform="matrix(0.74109068,0,0,1,77.672797,0)"
     width="600"
     height="480" />
  <defs
     id="defs4">
    <style
       type="text/css"
       id="style6">

    text {
        font-family: helvetica;
        stroke: black;
        stroke-width: 1;
        fill: black;
    }

    text.home {
        font-family: helvetica;
        stroke: black;
        stroke-width: 1;
        fill: black;
        font-weight: 900;
        font-size: 16px;
        pointer-events: none;
    }

    text.scl {
        font-family: helvetica;
        stroke: white;
        stroke-width: 1;
        fill: white;
        pointer-events: none;
        }

    circle.scl {
        fill: black;
        fill-opacity: 0.5;
        stroke: red;
        stroke-width: 3;
        filter: url(#f1);
        pointer-events: none;
   }

    path.home {
        stroke: black;
        }

    path.std {
        stroke: black;
        stroke-width: 1;
        filter: url(#f1);
        }

    path.arrow {
        stroke-width: 1;
        fill-opacity: 0.8;
        fill: rgba(208, 189, 31, 0.56);
        stroke: black;
        }
        
    rect.std {
        stroke: black;
        stroke-width: 1;
        filter: url(#f1);
        }

  </style>
    <filter
       id="f1"
       x="-1"
       y="-1"
       width="300%"
       height="300%">
      <feOffset
         result="offOut"
         in="SourceAlpha"
         dx="3"
         dy="3"
         id="feOffset9" />
      <feGaussianBlur
         result="blurOut"
         in="offOut"
         stdDeviation="4"
         id="feGaussianBlur11" />
      <feBlend
         in="SourceGraphic"
         in2="blurOut"
         mode="normal"
         id="feBlend13" />
    </filter>
    <symbol
       id="JogRose"
       viewBox="-50 -80 360 400">
      <g
         id="Jog100"
         fill="#c0c0c0"
         class="std">
        <g
           id="Z+100"
           onmouseup="top.jogXYClick('Z+100')"
           transform="translate(120 120)">
          <path
             class="std"
             d="M-60 -67.07 L-75.93,-83 A112.5,112.5 0 0,1 75,-83 L60,-67.07 A90,90 0 0,0 -60.00,-67.07 z"
             id="path27">
            <set
               attributeName="fill"
               to="orange"
               begin="mouseover"
               end="mouseout"
               id="set16" />
          </path>
        </g>
        <g
           id="X+100"
           onmouseup="top.jogXYClick('X+100')"
           transform="translate(120 120)">
          <path
             class="std"
             d="M67.07,-60 L83,-75.93 A112.5,112.5 0 0,1 83,75.93 L67.07,60 A90,90 0 0,0 67.07,-60"
             id="path30">
            <set
               attributeName="fill"
               to="orange"
               begin="mouseover"
               end="mouseout"
               id="set20" />
          </path>
        </g>
        <g
           id="Z-100"
           onmouseup="top.jogXYClick('Z-100')"
           transform="translate(120 120)">
          <path
             class="std"
             d="M-60,67.07 L-75.93,83 A112.5,112.5 0 0,0 75,83 L60,67.07 A90,90 0 0,1 -60.00,67.07 z"
             id="path33">
            <set
               attributeName="fill"
               to="orange"
               begin="mouseover"
               end="mouseout"
               id="set24" />
          </path>
        </g>
        <g
           id="X-100"
           onmouseup="top.jogXYClick('X-100')"
           transform="translate(120 120)">
          <path
             class="std"
             d="M-67.07,-60 L-83,-75.93 A112.5,112.5 0 0,0 -83,75.93 L-67.07,60 A90,90 0 0,1 -67.07,-60 z"
             id="path36">
            <set
               attributeName="fill"
               to="orange"
               begin="mouseover"
               end="mouseout"
               id="set28" />
          </path>
        </g>
      </g>
      <g
         id="Jog10"
         fill="#d0d0d0">
        <g
           id="Z+10"
           onmouseup="top.jogXYClick('Z+10')"
           transform="translate(120 120)">
          <path
             class="std"
             d="M-44.06 -51.13 L-60,-67.07 A90,90 0 0,1 60,-67 L44.06,-51.13 A67.5,67.5 0 0,0 -44.06,-51.13 z"
             id="path40">
            <set
               attributeName="fill"
               to="orange"
               begin="mouseover"
               end="mouseout"
               id="set33" />
          </path>
        </g>
        <g
           id="X+10"
           onmouseup="top.jogXYClick('X+10')"
           transform="translate(120 120)">
          <path
             class="std"
             d="M51.13 44.06 L67.07,60 A90,90 0 0,0 67.07,-60 L51.13,-44.06 A67.5,67.5 0 0,1 51.13,44.06 z"
             id="path43">
            <set
               attributeName="fill"
               to="orange"
               begin="mouseover"
               end="mouseout"
               id="set37" />
          </path>
        </g>
        <g
           id="Z-10"
           onmouseup="top.jogXYClick('Z-10')"
           transform="translate(120 120)">
          <path
             class="std"
             d="M-44.06 51.13 L-60,67.07 A90,90 0 0,0 60,67 L44.06,51.13 A67.5,67.5 0 0,1 -44.06,51.13 z"
             id="path46">
            <set
               attributeName="fill"
               to="orange"
               begin="mouseover"
               end="mouseout"
               id="set41" />
          </path>
        </g>
        <g
           id="X-10"
           onmouseup="top.jogXYClick('X-10')"
           transform="translate(120 120)">
          <path
             class="std"
             d="M-51.13 44.06 L-67.07,60 A90,90 0 0,1 -67.07,-60 L-51.13,-44.06 A67.5,67.5 0 0,0 -51.13,44.06 z"
             id="path49">
            <set
               attributeName="fill"
               to="orange"
               begin="mouseover"
               end="mouseout"
               id="set45" />
          </path>
        </g>
      </g>
      <g
         id="Jog1"
         fill="#e0e0e0">
        <g
           id="Z+1"
           onmouseup="top.jogXYClick('Z+1')"
           transform="translate(120 120)">
          <path
             class="std"
             d="M-28.09 -35.16 L-44.06,-51.13 A67.5,67.5 0 0,1 44.06,-51.13 L28.09,-35.16 A45,45 0 0,0 -28.09,-35.16 z"
             id="path53">
            <set
               attributeName="fill"
               to="orange"
               begin="mouseover"
               end="mouseout"
               id="set50" />
          </path>
        </g>
        <g
           id="X+1"
           onmouseup="top.jogXYClick('X+1')"
           transform="translate(120 120)">
          <path
             class="std"
             d="M35.16 -28.09 L51.13,-44.06 A67.5,67.05 0 0,1 51.13,44.06 L35.16,28.09 A45,45 0 0,0 35.16,-28.09 z"
             id="path56">
            <set
               attributeName="fill"
               to="orange"
               begin="mouseover"
               end="mouseout"
               id="set54" />
          </path>
        </g>
        <g
           id="Z-1"
           onmouseup="top.jogXYClick('Z-1')"
           transform="translate(120 120)">
          <path
             class="std"
             d="M-28.09 35.16 L-44.06,51.13 A67.5,67.5 0 0,0 44.06,51.13 L28.09,35.16 A45,45 0 0,1 -28.09,35.16 z"
             id="path59">
            <set
               attributeName="fill"
               to="orange"
               begin="mouseover"
               end="mouseout"
               id="set58" />
          </path>
        </g>
        <g
           id="X-1"
           onmouseup="top.jogXYClick('X-1')"
           transform="translate(120 120)">
          <path
             class="std"
             d="M-35.16 -28.09 L-51.13,-44.06 A67.5,67.05 0 0,0 -51.13,44.06 L-35.16,28.09 A45,45 0 0,1 -35.16,-28.09 z"
             id="path62">
            <set
               attributeName="fill"
               to="orange"
               begin="mouseover"
               end="mouseout"
               id="set62" />
          </path>
        </g>
      </g>
      <g
         id="Jog0_1"
         fill="#f0f0f0">
        <g
           id="Z+0.1"
           onmouseup="top.jogXYClick('Z+0.1')"
           transform="translate(120 120)">
          <path
             class="std"
             d="M-28.09 -35.16 A45,45 0 0,1 29.09,-35.16 L0,-7.07 z"
             id="path66">
            <set
               attributeName="fill"
               to="orange"
               begin="mouseover"
               end="mouseout"
               id="set67" />
          </path>
        </g>
        <g
           id="X+0_1"
           onmouseup="top.jogXYClick('X+0.1')"
           transform="translate(120 120)">
          <path
             class="std"
             d="M35.16 -28.09 A45,45 0 0,1 35.16,28.09 L7.07,0 z"
             id="path69">
            <set
               attributeName="fill"
               to="orange"
               begin="mouseover"
               end="mouseout"
               id="set71" />
          </path>
        </g>
        <g
           id="Z-0.1"
           onmouseup="top.jogXYClick('Z-0.1')"
           transform="translate(120 120)">
          <path
             class="std"
             d="M-28.09 35.16 A45,45 0 0,0 29.09,35.16 L0,7.07 z"
             id="path72">
            <set
               attributeName="fill"
               to="orange"
               begin="mouseover"
               end="mouseout"
               id="set75" />
          </path>
        </g>
        <g
           id="X-0_1"
           onmouseup="top.jogXYClick('X-0.1')"
           transform="translate(120 120)">
          <path
             class="std"
             d="M-35.16 -28.09 A45,45 0 0,0 -35.16,28.09 L-7.07,0 z"
             id="path75">
            <set
               attributeName="fill"
               to="orange"
               begin="mouseover"
               end="mouseout"
               id="set79" />
          </path>
        </g>
      </g>
      <g
         id="Decoration_E_GOR"
         onmouseup="top.jogClick('E+100')"
         fill-opacity=".6">
        <path
           inkscape:connector-curvature="0"
           id="E_GOR"
           d="m 120,240 17,17 -10,0 0,11 -14,0 0,-11 -10,0 z"
           class="arrow">
          <set
             attributeName="fill"
             to="orange"
             begin="mouseover"
             end="mouseout"
             id="set83" />
        </path>
      </g>
      <g
         id="Decoration_E_DOL"
         onmouseup="top.jogClick('E-100')"
         fill-opacity=".6">
        <path
           class="arrow"
           d="m 120,300 17,-17 -10,0 0,-11 -14,0 0,11 -10,0 z"
           id="E_DOL"
           inkscape:connector-curvature="0">
          <set
             attributeName="fill"
             to="orange"
             begin="mouseover"
             end="mouseout"
             id="set87" />
        </path>
      </g>
      <g
         id="Decoration_Z_DOL"
         font-weight="900"
         font-size="11"
         fill-opacity=".6">
        <path
           inkscape:connector-curvature="0"
           id="Z_DOL"
           onmouseup="top.jogClick('Z-100')"
           d="m 120,0 17,-17 -10,0 0,-11 -14,0 0,11 -10,0 z"
           class="arrow">
          <set
             attributeName="fill"
             to="orange"
             begin="mouseover"
             end="mouseout"
             id="set91" />
        </path>
      </g>
      <g
         id="Decoration_Z_GOR"
         font-weight="900"
         font-size="11"
         fill-opacity=".6">
        <path
           class="arrow"
           d="m 120,-60 17,17 -10,0 0,11 -14,0 0,-11 -10,0 z"
           id="Z_GOR"
           onmouseup="top.jogClick('Z+100')"
           inkscape:connector-curvature="0">
          <set
             attributeName="fill"
             to="orange"
             begin="mouseover"
             end="mouseout"
             id="set95" />
        </path>
      </g>
      <g
         id="Decoration_X_LEVO"
         font-weight="900"
         font-size="11"
         fill-opacity=".6">
        <path
           class="arrow"
           d="m -60,120 17,17 0,-10 11,0 0,-14 -11,0 0,-10 z"
           id="X_LEVO"
           onmouseup="top.jogClick('X-100')"
           inkscape:connector-curvature="0">
          <set
             attributeName="fill"
             to="orange"
             begin="mouseover"
             end="mouseout"
             id="set99" />
        </path>
      </g>
      <g
         id="Decoration_X_DESNO"
         font-weight="900"
         font-size="11"
         fill-opacity=".6">
        <path
           class="arrow"
           d="m 0,120 -17,-17 0,10 -11,0 0,14 11,0 0,10 z"
           id="X_DESNO"
           onmouseup="top.jogClick('X+100')"
           inkscape:connector-curvature="0">
          <set
             attributeName="fill"
             to="orange"
             begin="mouseover"
             end="mouseout"
             id="set103" />
        </path>
      </g>
      <g
         id="Decoration_Y_DESNO"
         font-weight="900"
         font-size="11"
         fill-opacity=".6">
        <path
           id="Y_DESNO"
           d="m 300,120 -17,-17 0,10 -11,0 0,14 11,0 0,10 z"
           class="arrow"
           onmouseup="top.jogClick('Y+100')"
           inkscape:connector-curvature="0">
          <set
             attributeName="fill"
             to="orange"
             begin="mouseover"
             end="mouseout"
             id="set107" />
        </path>
      </g>
      <g
         id="Decoration_Y_LEVO"
         font-weight="900"
         font-size="11"
         fill-opacity=".6">
        <path
           inkscape:connector-curvature="0"
           id="Y_LEVO"
           onmouseup="top.jogClick('Y-100')"
           d="m 240,120 17,17 0,-10 11,0 0,-14 -11,0 0,-10 z"
           class="arrow">
          <set
             attributeName="fill"
             to="orange"
             begin="mouseover"
             end="mouseout"
             id="set111" />
        </path>
      </g>
    </symbol>
    <symbol
       id="PrinterCtl">
      <use
         x="0"
         y="0"
         xlink:href="#JogRose"
         id="use95" />
    </symbol>
  </defs>
  <flowRoot
     xml:space="preserve"
     id="flowRoot3409"
     style="fill:black;stroke:none;stroke-opacity:1;stroke-width:1px;stroke-linejoin:miter;stroke-linecap:butt;fill-opacity:1;font-family:sans-serif;font-style:normal;font-weight:normal;font-size:40px;line-height:125%;letter-spacing:0px;word-spacing:0px"><flowRegion
       id="flowRegion3411"><rect
         id="rect3413"
         width="155.50652"
         height="40.617374"
         x="460.71707"
         y="177.11044" /></flowRegion><flowPara
       id="flowPara3415" /></flowRoot>  <text
     xml:space="preserve"
     style="font-size:30px;font-style:normal;font-weight:normal;line-height:100%;letter-spacing:0px;word-spacing:0px;fill:#000000;fill-opacity:1;stroke:none;font-family:sans-serif"
     x="444.47009"
     y="207.28334"
     id="PositionY"
     sodipodi:linespacing="100%"
     inkscape:label="#text3417"><tspan
       sodipodi:role="line"
       id="tspan3419"
       x="444.47009"
       y="207.28334">20000</tspan></text>
  <text
     xml:space="preserve"
     style="font-style:normal;font-weight:normal;font-size:30px;line-height:100%;font-family:sans-serif;letter-spacing:0px;word-spacing:0px;fill:#000000;fill-opacity:1;stroke:none;stroke-width:1px;stroke-linecap:butt;stroke-linejoin:miter;stroke-opacity:1"
     x="300.56857"
     y="428.93814"
     id="PositionE"
     sodipodi:linespacing="100%"
     inkscape:label="#text3421"><tspan
       sodipodi:role="line"
       id="tspan3423"
       x="300.56857"
       y="428.93814">20000</tspan></text>
  <text
     xml:space="preserve"
     style="font-style:normal;font-weight:normal;font-size:30px;line-height:100%;font-family:sans-serif;letter-spacing:0px;word-spacing:0px;fill:#000000;fill-opacity:1;stroke:none;stroke-width:1px;stroke-linecap:butt;stroke-linejoin:miter;stroke-opacity:1"
     x="49.960907"
     y="211.39944"
     id="PositionX"
     sodipodi:linespacing="100%"
     inkscape:label="#text3421-7"><tspan
       sodipodi:role="line"
       id="tspan3423-9"
       x="49.960907"
       y="211.39944">20000</tspan></text>
  <text
     sodipodi:linespacing="100%"
     id="PositionZ"
     y="69.219864"
     x="303.26245"
     style="font-style:normal;font-weight:normal;font-size:30px;line-height:100%;font-family:sans-serif;letter-spacing:0px;word-spacing:0px;fill:#000000;fill-opacity:1;stroke:none;stroke-width:1px;stroke-linecap:butt;stroke-linejoin:miter;stroke-opacity:1"
     xml:space="preserve"
     inkscape:label="#text3443"><tspan
       y="69.219864"
       x="303.26245"
       id="tspan3445"
       sodipodi:role="line">20000</tspan></text>
</svg>
